<?xml version="1.0" standalone="no"?>
<!DOCTYPE svg PUBLIC "-//W3C//DTD SVG 20010904//EN"
 "http://www.w3.org/TR/2001/REC-SVG-20010904/DTD/svg10.dtd">
<svg version="1.0" xmlns="http://www.w3.org/2000/svg"
 width="1568.000000pt" height="1703.000000pt" viewBox="0 0 1568.000000 1703.000000"
 preserveAspectRatio="xMidYMid meet">

<g transform="translate(0.000000,1703.000000) scale(0.100000,-0.100000)"
fill="#000000" stroke="none">
<path d="M4375 11965 l-2909 -5055 -270 0 -271 0 -458 -886 c-252 -487 -457
-888 -454 -890 5 -5 3998 -67 4002 -62 1 2 241 449 535 993 293 545 535 993
539 997 8 9 4082 -21 4099 -30 6 -4 260 -432 563 -952 303 -520 552 -946 553
-948 5 -5 4409 -63 4414 -58 2 3 -238 446 -534 985 l-539 981 -319 2 -320 3
-790 1377 -791 1377 -2702 1 c-1487 0 -2703 3 -2703 6 0 11 1192 2329 1204
2340 8 8 414 16 1429 27 780 8 1420 17 1423 19 4 4 -2767 4801 -2785 4820 -4
4 -1316 -2267 -2916 -5047z"/>
<path d="M10 4475 l0 -295 190 0 c174 0 190 -1 190 -17 0 -10 -86 -841 -190
-1848 -124 -1188 -190 -1858 -188 -1911 l3 -81 260 90 260 91 88 1385 c49 762
90 1396 93 1409 4 21 9 22 84 22 43 0 81 -3 83 -7 3 -5 74 -606 158 -1336 85
-731 157 -1334 161 -1340 7 -11 558 82 558 94 0 4 -149 911 -330 2017 -182
1105 -330 2012 -330 2016 0 3 -245 6 -545 6 l-545 0 0 -295z"/>
<path d="M13020 2737 l0 -2022 843 -198 c463 -109 848 -198 855 -197 9 0 12
131 12 620 l0 620 -22 5 c-42 10 -472 95 -480 95 -4 0 -8 -153 -8 -340 l0
-340 -22 5 c-13 3 -155 34 -316 69 -161 35 -295 66 -297 68 -2 2 -11 548 -19
1213 -9 666 -18 1368 -22 1561 l-6 352 38 6 c22 3 175 8 342 12 l302 6 0 -361
0 -361 255 0 255 0 0 605 0 605 -855 0 -855 0 0 -2023z"/>
<path d="M6180 2960 l0 -1750 635 0 635 0 0 275 0 275 -320 0 -320 0 0 1475 0
1475 -315 0 -315 0 0 -1750z"/>
<path d="M7760 4450 l0 -230 170 0 170 0 0 -1520 0 -1520 515 0 515 0 0 215 0
215 -259 0 c-239 0 -260 1 -265 18 -2 9 -8 263 -11 565 l-7 547 200 0 200 0 6
178 c4 97 9 203 12 235 l6 57 -220 0 c-202 0 -221 2 -226 18 -2 9 -8 228 -12
486 l-7 468 119 -6 c66 -3 197 -9 292 -12 l172 -6 0 261 0 261 -685 0 -685 0
0 -230z"/>
<path d="M9660 4400 l0 -270 180 0 180 0 0 -1555 0 -1555 275 0 275 0 0 1555
0 1555 210 0 210 0 0 270 0 270 -665 0 -665 0 0 -270z"/>
<path d="M1920 4390 l0 -270 180 0 180 0 0 -1690 c0 -929 1 -1690 3 -1690 2 0
124 22 272 50 148 27 270 50 272 50 2 0 3 738 3 1640 l0 1640 210 0 210 0 0
270 0 270 -665 0 -665 0 0 -270z"/>
<path d="M3750 4440 l0 -210 139 0 139 0 6 -382 c3 -211 9 -938 12 -1615 6
-1128 8 -1233 23 -1232 9 0 117 12 241 27 l225 27 3 828 2 827 280 0 280 0 0
-92 c0 -51 7 -383 15 -738 8 -355 15 -673 15 -707 l0 -63 265 0 265 0 0 1770
0 1770 -270 0 -270 0 0 -750 0 -750 -300 0 -300 0 0 750 0 750 -385 0 -385 0
0 -210z"/>
<path d="M11610 2741 l0 -1910 53 -10 c28 -6 140 -26 247 -46 107 -19 205 -38
217 -40 l23 -5 2 1687 3 1688 173 3 172 2 0 270 0 270 -445 0 -445 0 0 -1909z"/>
<path d="M15337 549 c-158 -38 -249 -194 -204 -350 47 -161 235 -242 389 -166
60 29 108 80 133 141 22 53 20 167 -6 220 -54 116 -192 185 -312 155z m131
-34 c129 -39 204 -174 167 -300 -61 -211 -340 -248 -450 -60 -64 109 -29 264
73 327 79 49 129 57 210 33z"/>
<path d="M15300 280 l0 -140 30 0 c29 0 30 1 30 50 0 66 21 66 55 0 23 -45 28
-50 60 -50 33 0 34 1 25 25 -5 13 -18 41 -29 62 -17 34 -17 41 -5 58 21 28 18
91 -6 115 -16 16 -33 20 -90 20 l-70 0 0 -140z m37 -57 c-2 -32 -3 -6 -3 57 0
63 1 89 3 58 2 -32 2 -84 0 -115z m64 137 c26 -14 24 -39 -3 -49 -29 -11 -38
-6 -38 23 0 36 10 42 41 26z m44 -151 c9 -17 15 -33 13 -35 -3 -2 -12 12 -21
31 -21 43 -13 47 8 4z"/>
</g>
</svg>
